<mxfile host="65bd71144e" scale="5" border="10">
    <diagram id="q_Jrxf0U78eWuM2NPNOv" name="ページ1">
        <mxGraphModel dx="1861" dy="1725" grid="1" gridSize="10" guides="1" tooltips="1" connect="1" arrows="1" fold="1" page="0" pageScale="1" pageWidth="827" pageHeight="1169" background="#FFFFFF" math="0" shadow="0">
            <root>
                <mxCell id="0"/>
                <mxCell id="1" parent="0"/>
                <mxCell id="3" value="" style="rounded=0;whiteSpace=wrap;html=1;fillColor=none;" parent="1" vertex="1">
                    <mxGeometry x="-20" y="-644.5" width="270" height="994.5" as="geometry"/>
                </mxCell>
                <mxCell id="41" style="edgeStyle=none;html=1;entryX=0;entryY=0.5;entryDx=0;entryDy=0;endArrow=none;endFill=0;" parent="1" source="2" target="6" edge="1">
                    <mxGeometry relative="1" as="geometry"/>
                </mxCell>
                <mxCell id="42" style="edgeStyle=none;html=1;entryX=0;entryY=0.5;entryDx=0;entryDy=0;endArrow=none;endFill=0;" parent="1" source="2" target="10" edge="1">
                    <mxGeometry relative="1" as="geometry"/>
                </mxCell>
                <mxCell id="44" style="edgeStyle=none;html=1;entryX=0;entryY=0.5;entryDx=0;entryDy=0;endArrow=none;endFill=0;" parent="1" source="2" target="13" edge="1">
                    <mxGeometry relative="1" as="geometry"/>
                </mxCell>
                <mxCell id="45" style="edgeStyle=none;html=1;entryX=0;entryY=0.5;entryDx=0;entryDy=0;endArrow=none;endFill=0;" parent="1" source="2" target="16" edge="1">
                    <mxGeometry relative="1" as="geometry"/>
                </mxCell>
                <mxCell id="46" style="edgeStyle=none;html=1;entryX=0;entryY=0.5;entryDx=0;entryDy=0;endArrow=none;endFill=0;" parent="1" source="2" target="19" edge="1">
                    <mxGeometry relative="1" as="geometry"/>
                </mxCell>
                <mxCell id="47" style="edgeStyle=none;html=1;entryX=0;entryY=0.5;entryDx=0;entryDy=0;endArrow=none;endFill=0;" parent="1" source="2" target="22" edge="1">
                    <mxGeometry relative="1" as="geometry"/>
                </mxCell>
                <mxCell id="48" style="edgeStyle=none;html=1;entryX=0;entryY=0.5;entryDx=0;entryDy=0;endArrow=none;endFill=0;" parent="1" source="2" target="25" edge="1">
                    <mxGeometry relative="1" as="geometry"/>
                </mxCell>
                <mxCell id="49" style="edgeStyle=none;html=1;entryX=0;entryY=0.5;entryDx=0;entryDy=0;endArrow=none;endFill=0;" parent="1" source="2" target="28" edge="1">
                    <mxGeometry relative="1" as="geometry"/>
                </mxCell>
                <mxCell id="50" style="edgeStyle=none;html=1;entryX=0;entryY=0.5;entryDx=0;entryDy=0;endArrow=none;endFill=0;" parent="1" source="2" target="31" edge="1">
                    <mxGeometry relative="1" as="geometry"/>
                </mxCell>
                <mxCell id="51" style="edgeStyle=none;html=1;entryX=0;entryY=0.5;entryDx=0;entryDy=0;endArrow=none;endFill=0;" parent="1" source="2" target="34" edge="1">
                    <mxGeometry relative="1" as="geometry"/>
                </mxCell>
                <mxCell id="2" value="ユーザ" style="shape=umlActor;verticalLabelPosition=bottom;verticalAlign=top;html=1;outlineConnect=0;" parent="1" vertex="1">
                    <mxGeometry x="-300" y="-207.5" width="30" height="60" as="geometry"/>
                </mxCell>
                <mxCell id="4" value="&lt;font style=&quot;font-size: 18px;&quot;&gt;EmoDialog&lt;/font&gt;" style="text;html=1;strokeColor=none;fillColor=none;align=center;verticalAlign=middle;whiteSpace=wrap;rounded=0;" parent="1" vertex="1">
                    <mxGeometry x="55" y="-644.5" width="120" height="50" as="geometry"/>
                </mxCell>
                <mxCell id="5" value="" style="group" parent="1" vertex="1" connectable="0">
                    <mxGeometry x="47.5" y="-560" width="135" height="45" as="geometry"/>
                </mxCell>
                <mxCell id="6" value="" style="rounded=1;whiteSpace=wrap;html=1;fillColor=none;arcSize=50;" parent="5" vertex="1">
                    <mxGeometry width="135" height="45" as="geometry"/>
                </mxCell>
                <mxCell id="7" value="新規登録" style="text;html=1;strokeColor=none;fillColor=none;align=center;verticalAlign=middle;whiteSpace=wrap;rounded=0;" parent="5" vertex="1">
                    <mxGeometry x="22.5" y="7.5" width="90" height="30" as="geometry"/>
                </mxCell>
                <mxCell id="9" value="" style="group" parent="1" vertex="1" connectable="0">
                    <mxGeometry x="47.5" y="-490" width="135" height="45" as="geometry"/>
                </mxCell>
                <mxCell id="10" value="" style="rounded=1;whiteSpace=wrap;html=1;fillColor=none;arcSize=50;" parent="9" vertex="1">
                    <mxGeometry width="135" height="45" as="geometry"/>
                </mxCell>
                <mxCell id="11" value="ログイン" style="text;html=1;strokeColor=none;fillColor=none;align=center;verticalAlign=middle;whiteSpace=wrap;rounded=0;" parent="9" vertex="1">
                    <mxGeometry x="22.5" y="7.5" width="90" height="30" as="geometry"/>
                </mxCell>
                <mxCell id="12" value="" style="group" parent="1" vertex="1" connectable="0">
                    <mxGeometry x="47.5" y="-370" width="135" height="45" as="geometry"/>
                </mxCell>
                <mxCell id="13" value="" style="rounded=1;whiteSpace=wrap;html=1;fillColor=none;arcSize=50;" parent="12" vertex="1">
                    <mxGeometry width="135" height="45" as="geometry"/>
                </mxCell>
                <mxCell id="14" value="日記作成" style="text;html=1;strokeColor=none;fillColor=none;align=center;verticalAlign=middle;whiteSpace=wrap;rounded=0;" parent="12" vertex="1">
                    <mxGeometry x="22.5" y="7.5" width="90" height="30" as="geometry"/>
                </mxCell>
                <mxCell id="15" value="" style="group" parent="1" vertex="1" connectable="0">
                    <mxGeometry x="47.5" y="-310" width="135" height="45" as="geometry"/>
                </mxCell>
                <mxCell id="16" value="" style="rounded=1;whiteSpace=wrap;html=1;fillColor=none;arcSize=50;" parent="15" vertex="1">
                    <mxGeometry width="135" height="45" as="geometry"/>
                </mxCell>
                <mxCell id="17" value="日記編集" style="text;html=1;strokeColor=none;fillColor=none;align=center;verticalAlign=middle;whiteSpace=wrap;rounded=0;" parent="15" vertex="1">
                    <mxGeometry x="22.5" y="7.5" width="90" height="30" as="geometry"/>
                </mxCell>
                <mxCell id="18" value="" style="group" parent="1" vertex="1" connectable="0">
                    <mxGeometry x="47.5" y="-240" width="135" height="45" as="geometry"/>
                </mxCell>
                <mxCell id="19" value="" style="rounded=1;whiteSpace=wrap;html=1;fillColor=none;arcSize=50;" parent="18" vertex="1">
                    <mxGeometry width="135" height="45" as="geometry"/>
                </mxCell>
                <mxCell id="20" value="日記削除" style="text;html=1;strokeColor=none;fillColor=none;align=center;verticalAlign=middle;whiteSpace=wrap;rounded=0;" parent="18" vertex="1">
                    <mxGeometry x="22.5" y="7.5" width="90" height="30" as="geometry"/>
                </mxCell>
                <mxCell id="21" value="" style="group" parent="1" vertex="1" connectable="0">
                    <mxGeometry x="47.5" y="-169.75" width="135" height="45" as="geometry"/>
                </mxCell>
                <mxCell id="22" value="" style="rounded=1;whiteSpace=wrap;html=1;fillColor=none;arcSize=50;" parent="21" vertex="1">
                    <mxGeometry width="135" height="45" as="geometry"/>
                </mxCell>
                <mxCell id="23" value="日記閲覧" style="text;html=1;strokeColor=none;fillColor=none;align=center;verticalAlign=middle;whiteSpace=wrap;rounded=0;" parent="21" vertex="1">
                    <mxGeometry x="22.5" y="7.5" width="90" height="30" as="geometry"/>
                </mxCell>
                <mxCell id="24" value="" style="group" parent="1" vertex="1" connectable="0">
                    <mxGeometry x="47.5" y="-60" width="135" height="45" as="geometry"/>
                </mxCell>
                <mxCell id="25" value="" style="rounded=1;whiteSpace=wrap;html=1;fillColor=none;arcSize=50;" parent="24" vertex="1">
                    <mxGeometry width="135" height="45" as="geometry"/>
                </mxCell>
                <mxCell id="26" value="チャット&lt;br&gt;メッセージ送信" style="text;html=1;strokeColor=none;fillColor=none;align=center;verticalAlign=middle;whiteSpace=wrap;rounded=0;" parent="24" vertex="1">
                    <mxGeometry x="22.5" y="7.5" width="90" height="30" as="geometry"/>
                </mxCell>
                <mxCell id="27" value="" style="group" parent="1" vertex="1" connectable="0">
                    <mxGeometry x="47.5" y="10" width="135" height="45" as="geometry"/>
                </mxCell>
                <mxCell id="28" value="" style="rounded=1;whiteSpace=wrap;html=1;fillColor=none;arcSize=50;" parent="27" vertex="1">
                    <mxGeometry width="135" height="45" as="geometry"/>
                </mxCell>
                <mxCell id="29" value="チャット履歴&lt;br&gt;閲覧" style="text;html=1;strokeColor=none;fillColor=none;align=center;verticalAlign=middle;whiteSpace=wrap;rounded=0;" parent="27" vertex="1">
                    <mxGeometry x="22.5" y="7.5" width="90" height="30" as="geometry"/>
                </mxCell>
                <mxCell id="30" value="" style="group" parent="1" vertex="1" connectable="0">
                    <mxGeometry x="47.5" y="80" width="135" height="45" as="geometry"/>
                </mxCell>
                <mxCell id="31" value="" style="rounded=1;whiteSpace=wrap;html=1;fillColor=none;arcSize=50;" parent="30" vertex="1">
                    <mxGeometry width="135" height="45" as="geometry"/>
                </mxCell>
                <mxCell id="32" value="チャット履歴&lt;br&gt;削除" style="text;html=1;strokeColor=none;fillColor=none;align=center;verticalAlign=middle;whiteSpace=wrap;rounded=0;" parent="30" vertex="1">
                    <mxGeometry x="22.5" y="7.5" width="90" height="30" as="geometry"/>
                </mxCell>
                <mxCell id="33" value="" style="group" parent="1" vertex="1" connectable="0">
                    <mxGeometry x="47.5" y="220" width="135" height="45" as="geometry"/>
                </mxCell>
                <mxCell id="34" value="" style="rounded=1;whiteSpace=wrap;html=1;fillColor=none;arcSize=50;" parent="33" vertex="1">
                    <mxGeometry width="135" height="45" as="geometry"/>
                </mxCell>
                <mxCell id="35" value="感情分析結果&lt;br&gt;確認" style="text;html=1;strokeColor=none;fillColor=none;align=center;verticalAlign=middle;whiteSpace=wrap;rounded=0;" parent="33" vertex="1">
                    <mxGeometry x="22.5" y="7.5" width="90" height="30" as="geometry"/>
                </mxCell>
            </root>
        </mxGraphModel>
    </diagram>
</mxfile>